<?xml version="1.0" encoding="utf-8"?>
<!-- Generator: Adobe Illustrator 28.3.0, SVG Export Plug-In . SVG Version: 6.00 Build 0)  -->
<svg version="1.0" id="katman_1" xmlns="http://www.w3.org/2000/svg" xmlns:xlink="http://www.w3.org/1999/xlink" x="0px" y="0px"
	 viewBox="0 0 841.89 595.28" style="enable-background:new 0 0 841.89 595.28;" xml:space="preserve">
<style type="text/css">
	.st0{fill:#231F20;}
</style>
<path class="st0" d="M252.35,324.59h-0.03c0.01,1.49-0.48,2.95-1.4,4.14c-0.92,1.19-2.2,2.04-3.66,2.44
	c-16.24,6.93-32.53-5.04-31.09-22.98c1.38-17.29,17.11-26.81,31.97-19.11c1.03,0.68,1.91,1.56,2.57,2.59
	c0.66,1.03,1.11,2.19,1.29,3.4c0.15,1.26,0.23,2.52,0.28,3.81l0.09,3.31v22.39H252.35z M252.35,280.18
	c-0.22-0.09-0.48-0.19-0.62-0.24c-20.57-6.61-34.22-3.69-43.01,8.88c-4.36,6.65-6.56,14.45-6.29,22.37
	c0.27,7.92,2.99,15.57,7.8,21.9c9.3,11.16,24.64,13.75,40.93,6.93l1.2-0.48v4.21h12.01v-99.85h-12.01v36.27H252.35z"/>
<path class="st0" d="M517.27,302.68l0.09-3.32c0.04-1.29,0.13-2.57,0.27-3.84c0.19-1.22,0.63-2.38,1.3-3.42
	c0.67-1.04,1.55-1.93,2.6-2.6c14.97-7.75,30.84,1.84,32.23,19.22c1.44,18.04-14.97,30.07-31.34,23.11
	c-1.47-0.39-2.77-1.26-3.69-2.45c-0.92-1.2-1.42-2.66-1.4-4.17h-0.03L517.27,302.68L517.27,302.68z M540.03,276.58
	c-7.5,0.12-14.97,0.84-22.36,2.15l-0.21,0.64v-35.45h-12.12v96.9l0.33,0.06c1.78,0.67,26.62,9.73,44.8,0.39
	c1.81-0.89,3.5-1.98,5.06-3.24h0.02c7.26-5.88,12.31-16.13,11.7-31.12C566.22,281.49,546.59,277.1,540.03,276.58"/>
<path class="st0" d="M339.07,302.63c0.1-2.26,0.68-4.46,1.7-6.49c1.01-2.03,2.44-3.84,4.2-5.3c1.76-1.47,3.8-2.58,6.01-3.25
	c2.21-0.67,4.55-0.9,6.85-0.66c2.1,0.02,4.17,0.45,6.09,1.26c1.93,0.81,3.67,1.97,5.14,3.43c1.46,1.46,2.62,3.19,3.39,5.08
	c0.78,1.89,1.17,3.91,1.14,5.96L339.07,302.63L339.07,302.63z M364.3,276.71c-21.34-3.58-37.61,8.04-39.5,29
	c-1.48,16.43,5.89,33.92,27.7,37.48c4.12,0.67,8.32,0.77,12.47,0.3l0.19-0.02c1.28-0.15,2.55-0.35,3.82-0.6
	c6.08-1.06,11.99-2.9,17.57-5.47v-13.81c-2.79,1.37-5.46,2.8-8.24,3.99c-7.68,3.91-16.51,5.15-25.01,3.5
	c-4.37-0.96-8.23-3.47-10.81-7.04c-2.58-3.57-3.71-7.95-3.17-12.27h48.38c1.59-7.66,0.02-15.61-4.36-22.16
	C378.97,283.04,372.13,278.41,364.3,276.71"/>
<path class="st0" d="M430.42,308.86c-6.6-3.59-21.65-9.38-21.38-14.82c0.26-5.43,7.29-10.51,29.56-0.72V281.1
	c-6.36-3.16-13.36-4.88-20.47-5.03c-10.7,0.24-19.96,3.99-22.42,14.25c-2.46,10.26,4.44,16.62,12.16,20.92
	c7.72,4.3,19.84,8.75,19.57,14.48c-0.26,5.72-8.34,7.23-12.63,6.57c-6.57-1.22-12.95-3.27-18.98-6.1v13.46
	c7.47,2.35,15.23,3.74,23.07,4.14c11.55,0.1,19.27-4.04,22.11-14.18s-3.99-17.13-10.58-20.73"/>
<path class="st0" d="M485.08,308.86c-6.84-3.59-22.45-9.38-22.18-14.82c0.28-5.43,7.56-10.51,30.66-0.72V281.1
	c-6.59-3.16-13.84-4.88-21.23-5.03c-11.11,0.24-20.71,3.99-23.26,14.25s4.61,16.62,12.61,20.92c8,4.3,20.58,8.75,20.31,14.48
	c-0.28,5.72-8.65,7.23-13.1,6.57c-6.81-1.22-13.43-3.27-19.69-6.1v13.46c7.76,2.35,15.8,3.74,23.93,4.14
	c11.97,0.1,19.99-4.04,22.93-14.18c2.94-10.14-4.13-17.13-10.97-20.73"/>
<path class="st0" d="M608.15,330.41c-1.97,1.02-10.48,5.59-16.63,2.42c-6.15-3.17-6.49-10.13-3.68-12.68l0.09-0.07h-0.09
	c0,0,0.25-0.17,0.73-0.46c0.36-0.24,0.77-0.49,1.25-0.76c6.44-3.79,13.32-6.8,20.47-8.96v14.33
	C610.28,328.23,610.1,329.41,608.15,330.41v0.02V330.41z M623.18,330.95V306.1c0-12.79-0.7-18.52-4.59-23.73s-13.77-7.01-23.74-6.08
	c-6.84,0.88-13.46,2.96-19.57,6.13v13.4c8.28-4.75,22.36-8.31,28.72-7.48c1.29,0.19,2.49,0.81,3.39,1.74
	c0.73,0.73,1.3,1.59,1.7,2.53s0.59,1.97,0.58,2.99v5.98v-0.03c0,0-22.15,5.91-32.2,14.83l-0.09,0.08c-1.67,1.48-2.99,3.32-3.84,5.38
	c-0.84,2.07-1.2,4.29-1.04,6.52c0,7.47,5.51,15.29,17.72,15.29c6.97,0.14,13.81-1.92,19.53-5.88c0.71,1.82,1.97,3.38,3.62,4.46
	c1.64,1.07,3.58,1.61,5.54,1.53c5,0.06,9.86-1.58,13.8-4.63v-8.22c-2.01,1.18-4.21,2.02-6.49,2.49c-0.36,0.07-0.74,0.06-1.11-0.02
	s-0.69-0.25-0.99-0.49c-0.29-0.24-0.53-0.53-0.69-0.86C623.27,331.69,623.18,331.32,623.18,330.95"/>
<path class="st0" d="M727.93,276.07c-2.73,0.2-10.02,0.03-20.32,8.52l-0.78,0.65v-8.89h-12.15v67.41h12.15v-45.94
	c1.56-3.5,4.2-6.45,7.54-8.42c3.35-1.97,7.23-2.88,11.13-2.6c14.79,0,13.84,12.9,13.84,12.9v44.07h12.14V299.7
	C751.47,299.7,752.76,276.06,727.93,276.07"/>
<path class="st0" d="M326.34,281.49c-8.6-4.22-14.4-6.35-20.36-4.83c-5.95,1.53-15.76,14.06-15.76,14.06v-14.64h-12.07v67.71h12.07
	v-25.54c0.25-6.96,1.55-13.85,3.85-20.44c7.29-16.71,22.21-6.24,24.6-4.42l7.5-11.62L326.34,281.49L326.34,281.49z"/>
<path class="st0" d="M667.44,276.66c-5.95,1.52-15.76,14.06-15.76,14.06v-14.65h-12.07v67.71h12.07v-25.54
	c0.24-6.96,1.55-13.85,3.85-20.44c7.2-16.5,21.82-6.52,24.51-4.5l7.64-11.62l0.13-0.21C679.21,277.27,673.4,275.13,667.44,276.66"/>
<path class="st0" d="M160.51,318.8c-0.98,2.84-2.57,5.43-4.63,7.58c-2.08,2.15-4.58,3.8-7.35,4.85c-7.25,2.66-14.96,3.8-22.65,3.36
	v-17.13c0.77,0,1.52,0.07,2.3,0.07h20.93v-33.88h0.06v-0.26l0.11,0.07l0.73,0.36c0.83,0.47,1.63,0.98,2.4,1.54
	c0.36,0.32,0.74,0.6,1.14,0.87c2.41,1.93,4.34,4.4,5.65,7.22c1.86,3.92,2.93,8.19,3.15,12.54c0.22,4.36-0.4,8.71-1.85,12.81h0.01
	L160.51,318.8z M125.84,280.14h7.91c0.94,0,2.45,0.08,4.19,0.25v26.95h-7.91c-0.94,0-2.45-0.08-4.19-0.26
	C125.85,294.25,125.84,281.47,125.84,280.14 M114.68,270v33.89h-0.05v0.26l-0.13-0.07c-0.25-0.13-0.49-0.26-0.73-0.36
	c-0.84-0.46-1.65-0.96-2.43-1.51c-0.36-0.32-0.74-0.61-1.14-0.88c-2.41-1.92-4.34-4.39-5.65-7.2c-1.86-3.93-2.94-8.19-3.16-12.56
	c-0.22-4.36,0.41-8.71,1.86-12.83c0.99-2.84,2.57-5.43,4.64-7.58c2.08-2.15,4.59-3.8,7.36-4.83c7.25-2.65,14.96-3.8,22.65-3.35
	v17.11c-0.77,0-1.52-0.07-2.3-0.07L114.68,270L114.68,270z M166.92,330.55c3.3-4.54,5.59-9.75,6.7-15.29
	c1.11-5.53,1.03-11.25-0.25-16.75c-0.9-5.66-3.27-10.96-6.86-15.37c-3.59-4.4-8.28-7.74-13.56-9.65c-0.66-0.27-1.99-0.78-3.76-1.33
	v-29.13c-6.59,0-12.91-0.17-19.23,0.06c-4.16,0.09-8.31,0.56-12.39,1.39c-8.16,1.46-15.53,5.9-20.71,12.51
	c-3.3,4.54-5.58,9.76-6.7,15.29c-1.11,5.53-1.03,11.25,0.25,16.75c0.9,5.66,3.27,10.96,6.86,15.37c3.59,4.4,8.27,7.74,13.56,9.65
	c0.66,0.28,1.99,0.77,3.76,1.32v29.13c6.59,0,12.91,0.17,19.22-0.07c4.16-0.09,8.31-0.55,12.39-1.37
	C154.36,341.58,161.73,337.14,166.92,330.55"/>
</svg>
